<svg xmlns="http://www.w3.org/2000/svg" viewBox="0 0 317.57 317.57"><defs><style>.cls-1{fill:#fff;}</style></defs><g id="Layer_3" data-name="Layer 3"><path class="cls-1" d="M241.82,209.21h0V85.73a10,10,0,0,0-10-10H108.36L78.77,46.14H262a5,5,0,0,1,5,5v138.6l50.58,50.58V20a20,20,0,0,0-20-20H20A20,20,0,0,0,0,20V32.55l73.5,73.5,0,0,2.27,2.27V231.83a10,10,0,0,0,10,10H209.21l26.34,26.35H50a5,5,0,0,1-5-5v-141L0,77.18V297.57a20,20,0,0,0,20,20H297.57a20,20,0,0,0,20-20V285ZM124,198.61a5,5,0,0,1-5-5v-42l47,47ZM198.61,166l-47-47h42a5,5,0,0,1,5,5Z"/></g></svg>