<?xml version="1.0" encoding="utf-8"?>
<!-- Generator: Adobe Illustrator 26.1.0, SVG Export Plug-In . SVG Version: 6.00 Build 0)  -->
<svg version="1.1" id="Layer_1" xmlns="http://www.w3.org/2000/svg" xmlns:xlink="http://www.w3.org/1999/xlink" x="0px" y="0px"
	 viewBox="0 0 317.6 317.6" style="enable-background:new 0 0 317.6 317.6;" xml:space="preserve">
<style type="text/css">
	.st0{fill:#FFFFFF;}
</style>
<path class="st0" d="M234.3,85.7c0-1.4-1.1-2.5-2.5-2.5H105.3L60.7,38.6H262c6.9,0,12.5,5.6,12.5,12.5v135.5l35.6,35.6V20
	c0-6.9-5.6-12.5-12.5-12.5H20C13.1,7.5,7.5,13.1,7.5,20v9.4l71.4,71.4l4.3,4.5v126.5c0,1.4,1.1,2.5,2.5,2.5h126.6l41.3,41.3H50
	c-6.9,0-12.5-5.6-12.5-12.5V125.2l-30-30v202.3c0,6.9,5.6,12.5,12.5,12.5h277.6c6.9,0,12.5-5.6,12.5-12.5v-9.5l-75.7-75.7
	L234.3,85.7z M124,206.1c-6.9,0-12.5-5.6-12.5-12.5v-60.1l72.6,72.6H124z M206.1,184.1l-72.6-72.6h60.1c6.9,0,12.5,5.6,12.5,12.5
	V184.1z"/>
</svg>
