<?xml version="1.0" encoding="UTF-8"?>
  <svg xmlns="http://www.w3.org/2000/svg" viewBox="0 0 1024 1024">
  <defs>
    <style>
      .logo {
        fill: #333;
      }
      @media (prefers-color-scheme: dark) {
        .logo {
          fill: white;
        }
      }
    </style>
  </defs>
  <path class="logo" d="M733.28,296.27c0-4.04-3.28-7.32-7.32-7.32h-370.73l-130.59-130.59h589.63c20.19,0,36.61,16.42,36.61,36.61v396.82l104.21,104.21V103.76c0-20.19-16.42-36.61-36.61-36.61H105.53c-20.19,0-36.61,16.42-36.61,36.61v27.67l209.07,209.07,12.74,13.16v370.52c0,4.04,3.28,7.32,7.32,7.32h370.73l121.09,121.09H193.26c-20.19,0-36.61-16.42-36.61-36.61v-403.99l-87.73-87.73v592.43c0,20.19,16.42,36.61,36.61,36.61h812.94c20.19,0,36.61-16.42,36.61-36.61v-27.86l-221.84-221.84.03-370.73ZM409.99,648.85c-20.19,0-36.61-16.42-36.61-36.61v-176.14l212.75,212.75h-176.14ZM650.62,584.35l-212.75-212.75h176.14c20.19,0,36.61,16.42,36.61,36.61v176.14Z"/>
</svg>